<svg version="1.1" id="Layer_1" xmlns="http://www.w3.org/2000/svg" xmlns:xlink="http://www.w3.org/1999/xlink" x="0px" y="0px"
	 width="100%" viewBox="0 0 512 512" enable-background="new 0 0 512 512" xml:space="preserve">
<path fill="#FFFFFF" opacity="1.000000" stroke="none" 
	d="
M1.000000,406.000000 
	C1.000000,271.043671 1.000000,136.087341 1.000000,1.065504 
	C171.567764,1.065504 342.135559,1.065504 513.000000,1.065504 
	C513.000000,135.690598 513.000000,270.381409 512.704651,405.351624 
	C510.700745,401.913147 507.338013,400.915192 503.786316,401.083099 
	C499.053497,401.306854 494.069275,401.308350 489.686798,402.828583 
	C479.314240,406.426697 469.233124,410.864899 458.881104,414.664246 
	C447.613647,404.076385 435.025635,395.917969 421.679565,388.886353 
	C405.521698,380.373230 388.537811,373.981049 371.016998,368.837097 
	C341.599457,360.200378 311.609650,355.262451 280.998169,353.517029 
	C281.341217,344.612305 281.219116,336.122101 282.127258,327.743561 
	C283.753723,312.738159 285.723969,297.756622 288.062897,282.845520 
	C290.574371,266.834351 293.439423,250.868927 296.585602,234.969711 
	C299.792633,218.762848 303.195801,202.579147 307.124420,186.535004 
	C311.347992,169.286179 316.282196,152.211380 320.959259,135.428314 
	C325.914581,145.259384 329.779236,155.467377 335.927460,164.037003 
	C350.393463,184.200241 368.794434,200.120300 392.372864,208.952026 
	C399.962189,211.794754 408.107178,213.257111 416.091095,214.897888 
	C419.837891,215.667892 421.304321,212.514969 420.718536,209.581009 
	C419.250519,202.228149 417.509949,194.890198 415.241089,187.748825 
	C413.318085,181.696106 410.502991,175.926804 408.544586,170.019638 
	C416.255341,169.667282 423.518616,169.510529 430.749298,168.940674 
	C439.583588,168.244415 440.931732,165.261703 436.259216,157.558960 
	C435.408722,156.156921 434.721893,154.647858 433.796204,153.300369 
	C423.377106,138.133255 409.315277,127.273727 393.170868,118.661819 
	C398.089081,113.135025 403.069916,108.052658 407.724518,102.687302 
	C411.607147,98.211838 410.690033,94.691330 404.954712,93.176826 
	C399.141388,91.641724 393.122559,90.598495 387.130035,90.087608 
	C374.566406,89.016510 362.206024,90.756577 350.021240,93.482269 
	C350.055420,82.030518 346.301453,72.119629 340.779114,62.855682 
	C339.933014,61.436302 336.964813,60.003193 335.514832,60.424362 
	C323.658203,63.868423 313.736786,70.244019 306.667175,80.796661 
	C302.219299,76.276535 298.224396,71.727364 293.925568,67.486275 
	C284.993286,58.673965 274.407135,52.537601 262.448029,48.767723 
	C256.971436,47.041332 254.675781,48.437695 255.095749,54.079510 
	C255.690445,62.068317 256.944855,70.008018 257.537811,77.804932 
	C250.143463,77.427559 243.129959,77.135963 236.113525,77.016838 
	C222.120636,76.779259 209.170685,80.651443 196.597336,86.585945 
	C191.562515,88.962334 190.574829,92.803612 194.978821,96.377388 
	C201.223770,101.445061 207.753967,106.161201 213.969223,111.321320 
	C201.912247,118.345932 190.719696,125.901657 181.892471,136.553040 
	C177.932816,141.330963 178.365311,144.263306 184.179947,146.558960 
	C189.330887,148.592590 194.633957,150.240845 199.742126,152.366638 
	C189.432541,158.481873 180.702530,166.026276 172.908295,174.578918 
	C167.699326,169.947159 162.771835,165.447067 157.538803,161.335876 
	C154.555847,158.992386 151.574615,159.336594 150.244247,163.451447 
	C148.050415,170.237106 146.022186,177.076309 143.515091,183.932571 
	C142.608429,183.970398 142.070389,184.094009 141.619217,183.948380 
	C131.719574,180.753372 121.492462,180.635101 111.288757,181.114044 
	C107.111137,181.310135 102.891602,182.433273 98.876076,183.714355 
	C95.365601,184.834305 93.785614,186.864685 96.804382,190.682343 
	C103.571030,199.239685 111.271919,206.731018 120.000412,213.323502 
	C118.905136,214.570633 118.000542,215.550827 117.032295,216.463470 
	C103.321716,229.386871 94.845512,245.172653 91.172920,263.605560 
	C90.370583,267.632477 92.335114,270.558014 95.787857,269.893066 
	C109.971252,267.161743 122.447929,260.910400 133.220078,251.279083 
	C145.190567,240.576340 154.217224,227.819107 160.351410,213.044983 
	C164.120880,225.522034 167.957703,237.682281 170.928635,250.050491 
	C176.152466,271.797577 181.340393,293.576385 185.584290,315.527344 
	C188.286896,329.506165 189.260605,343.819214 190.600830,358.004028 
	C186.131790,358.736877 182.049957,359.343964 178.014465,360.175842 
	C145.292725,366.921112 113.333160,376.041779 84.491264,393.447845 
	C74.098763,399.719696 64.770378,407.754761 54.629677,414.847839 
	C50.709076,413.070679 46.951290,411.712891 43.552456,409.737488 
	C33.921833,404.140228 23.353329,402.088928 12.496588,401.034851 
	C7.821545,400.580963 3.660847,401.635468 1.000000,406.000000 
M124.429611,90.742805 
	C133.193329,88.592804 144.394638,92.997116 148.300354,100.953857 
	C150.569504,105.576576 151.495300,110.864868 152.967133,115.870850 
	C154.159958,119.927765 157.829468,122.449371 161.998871,121.975296 
	C166.210281,121.496452 169.168976,118.340019 168.929749,113.861244 
	C168.693161,109.432266 168.598877,104.792343 167.202469,100.664314 
	C161.557983,83.978188 149.153275,75.198318 132.093109,73.299194 
	C117.814461,71.709717 105.965332,77.316879 97.229256,88.563988 
	C94.672142,91.856102 92.689560,91.855835 89.395584,90.725662 
	C77.065636,86.495224 66.338844,90.652802 59.529942,101.628822 
	C58.491718,103.302460 55.776958,104.715508 53.745762,104.848755 
	C47.445518,105.262047 41.100037,104.931297 34.773914,105.019157 
	C27.858950,105.115196 24.954065,107.885979 25.000446,114.107391 
	C25.040133,119.430580 28.158846,121.978500 34.749477,121.994438 
	C43.907413,122.016579 53.065445,122.003220 62.223438,121.999008 
	C69.837532,121.995514 71.906029,120.432510 73.793724,113.278847 
	C75.757919,105.835274 80.284111,104.280472 86.456787,108.928917 
	C94.837151,115.239937 102.523643,113.582588 107.294113,104.360840 
	C110.829178,97.527214 115.980499,92.726692 124.429611,90.742805 
M402.500000,266.000000 
	C417.658722,265.999939 432.817505,266.029297 447.976105,265.984833 
	C453.740295,265.967926 456.895569,263.224243 456.999634,258.375153 
	C457.128784,252.358017 454.558228,249.127151 448.486511,249.082596 
	C424.833618,248.909058 401.177948,248.909836 377.525024,249.081741 
	C371.449585,249.125900 368.875488,252.349747 369.000366,258.363647 
	C369.101074,263.215759 372.255646,265.945465 378.012421,265.986115 
	C385.841248,266.041382 393.670776,265.999969 402.500000,266.000000 
M408.998779,297.997925 
	C415.341919,296.856140 417.336731,294.585297 416.996735,288.893494 
	C416.685730,283.688202 413.738800,281.071777 407.545868,281.032379 
	C392.596741,280.937256 377.646332,280.943298 362.697113,281.026703 
	C355.835419,281.064972 352.943787,283.918640 353.000366,290.145477 
	C353.048462,295.437927 356.174286,297.985718 362.751343,297.993988 
	C377.867126,298.012939 392.982941,297.999847 408.998779,297.997925 
M343.140991,249.000320 
	C337.674347,249.210815 332.183899,249.179001 326.749115,249.713364 
	C322.846100,250.097153 321.356384,253.044357 320.973724,256.749176 
	C320.566650,260.690033 321.717499,264.619476 325.565918,265.016541 
	C333.069672,265.790710 340.773163,265.905457 348.260284,265.080383 
	C352.678497,264.593475 353.556091,260.108734 352.963928,255.942123 
	C352.232330,250.794495 348.540253,249.361252 343.140991,249.000320 
z"/>
<path fill="#FFFFFF" opacity="1.000000" stroke="none" 
	d="
M513.000000,414.000000 
	C513.000000,446.979645 513.000000,479.959320 513.000000,512.938721 
	C342.333313,512.938538 171.666656,512.938538 1.000000,512.938538 
	C1.000000,480.230499 1.000000,447.583893 1.320567,414.611267 
	C4.520886,415.523773 7.335036,416.962952 10.302526,417.933228 
	C12.423985,418.626892 14.751127,418.691498 16.991264,419.497131 
	C16.997656,422.757935 16.691317,425.599182 17.055593,428.351654 
	C18.442516,438.831238 23.272144,447.100128 32.999428,452.414642 
	C32.783501,457.264160 34.871086,459.826355 39.126621,461.208344 
	C56.055992,466.706024 73.384392,467.997009 90.591080,464.007324 
	C101.461647,461.486847 111.988617,457.097473 122.300339,452.683472 
	C129.764435,449.488464 136.599442,448.931885 143.735489,452.862183 
	C146.066666,454.146118 148.473099,455.301208 150.885849,456.428009 
	C163.662155,462.394775 177.082382,465.546753 191.199524,466.036102 
	C210.585510,466.708130 228.749054,462.435944 245.711044,453.099487 
	C253.370026,448.883698 260.876923,448.854370 268.459930,453.192535 
	C270.479950,454.348175 272.602875,455.329285 274.704865,456.335571 
	C294.671112,465.894348 315.828796,468.571808 337.266449,464.415070 
	C348.806549,462.177490 359.841461,456.956543 370.838318,452.434814 
	C377.589020,449.658997 383.931610,448.890472 390.471558,452.244324 
	C403.245667,458.795105 416.340118,463.909302 430.905334,465.307220 
	C445.996246,466.755585 460.660309,465.876312 475.038086,461.089417 
	C479.297699,459.671204 481.572998,456.718048 481.352234,451.976196 
	C483.837799,450.215179 486.125946,448.646332 488.079803,446.735626 
	C495.892365,439.095306 497.745728,429.467743 497.421570,418.982819 
	C502.873749,417.247681 509.064819,419.095551 513.000000,414.000000 
z"/>
<path fill="#A5DCFF" opacity="1.000000" stroke="none" 
	d="
M16.986504,419.036804 
	C14.751127,418.691498 12.423985,418.626892 10.302526,417.933228 
	C7.335036,416.962952 4.520886,415.523773 1.320567,414.142609 
	C1.000000,411.629425 1.000000,409.258881 1.000000,406.444153 
	C3.660847,401.635468 7.821545,400.580963 12.496588,401.034851 
	C23.353329,402.088928 33.921833,404.140228 43.552456,409.737488 
	C46.951290,411.712891 50.709076,413.070679 54.896965,415.120544 
	C66.577461,419.443878 77.651405,418.525940 88.456940,414.747101 
	C100.072449,410.684937 110.367767,403.496979 123.353378,402.515869 
	C135.460587,401.601135 147.093063,402.323914 158.425629,406.313019 
	C165.430069,408.778625 172.132080,412.103424 179.248596,415.306915 
	C184.077316,416.380402 188.612823,417.766266 193.180237,417.880890 
	C203.287735,418.134491 212.814804,415.499939 221.755386,410.690796 
	C232.294708,405.021729 243.378418,401.848022 255.566467,401.860718 
	C269.341248,401.875031 282.013458,405.080048 294.085754,411.552246 
	C303.019592,416.341858 312.697357,418.812805 322.857422,417.801056 
	C331.827301,416.907867 340.196747,413.826996 348.185883,409.522369 
	C357.989899,404.239838 368.499115,401.896332 379.764923,401.871582 
	C393.758118,401.840881 406.531128,405.318542 418.816742,411.867615 
	C431.629486,418.697693 445.158600,420.039795 459.034180,414.963440 
	C469.233124,410.864899 479.314240,406.426697 489.686798,402.828583 
	C494.069275,401.308350 499.053497,401.306854 503.786316,401.083099 
	C507.338013,400.915192 510.700745,401.913147 512.704651,405.815491 
	C513.000000,408.370575 513.000000,410.741119 513.000000,413.555847 
	C509.064819,419.095551 502.873749,417.247681 497.195801,418.715637 
	C488.695648,421.340973 480.571655,423.629059 473.026031,427.154877 
	C463.146881,431.771118 452.816376,433.272491 442.197205,433.484436 
	C428.562500,433.756592 416.385712,428.941101 404.300140,422.970276 
	C398.277039,419.994598 391.065552,418.988342 384.260529,418.126373 
	C371.928070,416.564209 360.693604,420.432190 350.012390,426.441345 
	C340.215210,431.953186 329.337524,433.392212 318.337708,433.516510 
	C305.111298,433.665985 293.127777,429.370483 281.330200,423.466766 
	C275.027435,420.312805 267.520447,419.092377 260.404297,418.141052 
	C247.897629,416.469147 236.529053,420.515228 225.696716,426.599457 
	C216.047913,432.018890 205.292511,433.423676 194.477356,433.536163 
	C181.285431,433.673370 169.265228,429.448975 157.455734,423.544830 
	C151.013367,420.323975 143.328796,419.119019 136.051758,418.140656 
	C123.523483,416.456299 112.303284,420.907074 101.366783,426.727478 
	C87.183586,434.275696 71.758163,435.018951 56.459911,431.807709 
	C48.158382,430.065186 40.465336,425.576416 32.339531,422.787598 
	C27.377256,421.084534 22.114378,420.257324 16.986504,419.036804 
z"/>
<path fill="#AFD755" opacity="1.000000" stroke="none" 
	d="
M350.034363,93.919022 
	C362.206024,90.756577 374.566406,89.016510 387.130035,90.087608 
	C393.122559,90.598495 399.141388,91.641724 404.954712,93.176826 
	C410.690033,94.691330 411.607147,98.211838 407.724518,102.687302 
	C403.069916,108.052658 398.089081,113.135025 392.780182,118.661835 
	C391.660645,118.865768 390.944763,118.885017 390.369751,118.609886 
	C372.976929,110.287987 354.545441,107.905060 335.513641,109.035057 
	C333.625641,109.147163 331.764984,109.720146 328.585297,110.329605 
	C357.606476,117.314049 378.974121,133.470428 396.610229,155.153000 
	C400.560699,160.009918 404.264984,165.067108 408.082642,170.032104 
	C410.502991,175.926804 413.318085,181.696106 415.241089,187.748825 
	C417.509949,194.890198 419.250519,202.228149 420.718536,209.581009 
	C421.304321,212.514969 419.837891,215.667892 416.091095,214.897888 
	C408.107178,213.257111 399.962189,211.794754 392.372864,208.952026 
	C368.794434,200.120300 350.393463,184.200241 335.927460,164.037003 
	C329.779236,155.467377 325.914581,145.259384 320.981628,135.042328 
	C319.986877,131.503113 319.022675,128.717514 318.037048,125.535385 
	C317.638550,122.954712 317.261475,120.770569 316.754425,117.833824 
	C310.087891,123.969940 304.037598,129.538818 297.625366,135.080780 
	C288.831055,139.062225 280.571564,143.498627 271.929993,146.989166 
	C254.367294,154.083176 235.859329,155.587936 216.744186,154.898071 
	C210.875488,153.843750 205.372681,152.951508 199.869873,152.059250 
	C194.633957,150.240845 189.330887,148.592590 184.179947,146.558960 
	C178.365311,144.263306 177.932816,141.330963 181.892471,136.553040 
	C190.719696,125.901657 201.912247,118.345932 214.351318,111.311844 
	C216.647385,110.488052 218.448044,110.146416 220.077347,109.420296 
	C247.817398,97.057793 276.367798,94.344650 305.810608,102.128532 
	C307.685577,102.624214 309.506226,103.325249 311.352173,103.930748 
	C311.670929,103.315300 311.989716,102.699852 312.308472,102.084412 
	C306.949127,98.421906 301.765625,94.462883 296.194000,91.158257 
	C284.375763,84.148636 271.373749,80.344505 257.917328,77.968704 
	C256.944855,70.008018 255.690445,62.068317 255.095749,54.079510 
	C254.675781,48.437695 256.971436,47.041332 262.448029,48.767723 
	C274.407135,52.537601 284.993286,58.673965 293.925568,67.486275 
	C298.224396,71.727364 302.219299,76.276535 306.703552,81.155220 
	C312.131683,90.385422 317.208099,99.146584 322.266083,107.875931 
	C329.131073,104.447342 335.890808,101.079094 342.642639,97.695190 
	C345.116119,96.455551 347.571014,95.178825 350.034363,93.919022 
M313.477600,104.593399 
	C313.477600,104.593399 313.403870,104.476105 313.477600,104.593399 
z"/>
<path fill="#F5DCB4" opacity="1.000000" stroke="none" 
	d="
M458.881104,414.664246 
	C445.158600,420.039795 431.629486,418.697693 418.816742,411.867615 
	C406.531128,405.318542 393.758118,401.840881 379.764923,401.871582 
	C368.499115,401.896332 357.989899,404.239838 348.185883,409.522369 
	C340.196747,413.826996 331.827301,416.907867 322.857422,417.801056 
	C312.697357,418.812805 303.019592,416.341858 294.085754,411.552246 
	C282.013458,405.080048 269.341248,401.875031 255.566467,401.860718 
	C243.378418,401.848022 232.294708,405.021729 221.755386,410.690796 
	C212.814804,415.499939 203.287735,418.134491 193.180237,417.880890 
	C188.612823,417.766266 184.077316,416.380402 179.395111,415.002655 
	C186.085251,407.872650 192.626587,400.985321 199.785172,394.814026 
	C217.796036,379.287079 238.193817,367.647552 260.215759,358.753448 
	C262.989014,357.633392 265.446167,355.730591 268.506836,354.142487 
	C272.975006,354.056976 276.986115,354.019379 280.997253,353.981812 
	C311.609650,355.262451 341.599457,360.200378 371.016998,368.837097 
	C388.537811,373.981049 405.521698,380.373230 421.679565,388.886353 
	C435.025635,395.917969 447.613647,404.076385 458.881104,414.664246 
z"/>
<path fill="#AFD755" opacity="1.000000" stroke="none" 
	d="
M143.924164,183.892944 
	C146.022186,177.076309 148.050415,170.237106 150.244247,163.451447 
	C151.574615,159.336594 154.555847,158.992386 157.538803,161.335876 
	C162.771835,165.447067 167.699326,169.947159 172.860657,174.942963 
	C169.924240,181.096008 166.881973,186.590424 163.839706,192.084824 
	C167.318848,191.771057 169.775726,190.825989 172.201477,189.806808 
	C184.449524,184.660645 197.379913,186.245438 210.519470,185.963867 
	C222.122757,187.999847 232.796509,191.528152 242.643005,197.299316 
	C250.806274,202.083893 257.946991,208.011093 263.561859,216.566406 
	C260.931396,218.128357 258.854401,219.839096 256.470520,220.699356 
	C241.500336,226.101562 226.026398,227.020660 210.755081,223.126114 
	C200.576904,220.530457 190.929779,215.852386 180.764282,211.911270 
	C177.014359,208.783401 173.545151,205.850586 170.038834,202.930817 
	C170.001724,202.943878 170.079514,202.955292 170.054169,202.663147 
	C169.676804,201.938797 169.324814,201.506622 168.824554,200.775864 
	C167.154846,198.489288 165.633377,196.501297 164.111893,194.513290 
	C163.564972,194.884979 163.018036,195.256668 162.471100,195.628357 
	C161.657028,201.359512 160.842941,207.090668 160.028854,212.821823 
	C154.217224,227.819107 145.190567,240.576340 133.220078,251.279083 
	C122.447929,260.910400 109.971252,267.161743 95.787857,269.893066 
	C92.335114,270.558014 90.370583,267.632477 91.172920,263.605560 
	C94.845512,245.172653 103.321716,229.386871 117.032295,216.463470 
	C118.000542,215.550827 118.905136,214.570633 120.335403,213.274048 
	C132.784531,203.288849 145.930969,196.095108 161.391190,192.825592 
	C155.568848,189.848038 149.746521,186.870499 143.924164,183.892944 
z"/>
<path fill="#EBC9A0" opacity="1.000000" stroke="none" 
	d="
M268.049774,354.190430 
	C265.446167,355.730591 262.989014,357.633392 260.215759,358.753448 
	C238.193817,367.647552 217.796036,379.287079 199.785172,394.814026 
	C192.626587,400.985321 186.085251,407.872650 179.116364,414.738281 
	C172.132080,412.103424 165.430069,408.778625 158.425629,406.313019 
	C147.093063,402.323914 135.460587,401.601135 123.353378,402.515869 
	C110.367767,403.496979 100.072449,410.684937 88.456940,414.747101 
	C77.651405,418.525940 66.577461,419.443878 55.223663,415.257904 
	C64.770378,407.754761 74.098763,399.719696 84.491264,393.447845 
	C113.333160,376.041779 145.292725,366.921112 178.014465,360.175842 
	C182.049957,359.343964 186.131790,358.736877 191.034332,358.021118 
	C195.567978,357.621033 199.259415,357.225403 203.372131,356.877289 
	C208.537308,356.277405 213.281219,355.630005 218.453156,354.988342 
	C222.636520,354.667542 226.394531,354.368164 230.146484,354.006165 
	C233.401062,353.692139 236.648819,353.307281 240.180725,353.279541 
	C247.292786,353.683655 254.123703,353.761963 261.394806,353.893799 
	C263.906586,354.028351 265.978180,354.109406 268.049774,354.190430 
z"/>
<path fill="#AA8778" opacity="1.000000" stroke="none" 
	d="
M268.506836,354.142487 
	C265.978180,354.109406 263.906586,354.028351 261.407654,353.446259 
	C263.062103,334.222839 264.124908,315.316406 267.464844,296.821228 
	C272.456421,269.179901 278.485565,241.690765 285.113495,214.389420 
	C292.572601,183.664352 303.440369,154.063263 318.058441,125.931923 
	C319.022675,128.717514 319.986877,131.503113 320.928741,134.674683 
	C316.282196,152.211380 311.347992,169.286179 307.124420,186.535004 
	C303.195801,202.579147 299.792633,218.762848 296.585602,234.969711 
	C293.439423,250.868927 290.574371,266.834351 288.062897,282.845520 
	C285.723969,297.756622 283.753723,312.738159 282.127258,327.743561 
	C281.219116,336.122101 281.341217,344.612305 280.998169,353.517029 
	C276.986115,354.019379 272.975006,354.056976 268.506836,354.142487 
z"/>
<path fill="#DCF5FF" opacity="1.000000" stroke="none" 
	d="
M124.027977,90.832939 
	C115.980499,92.726692 110.829178,97.527214 107.294113,104.360840 
	C102.523643,113.582588 94.837151,115.239937 86.456787,108.928917 
	C80.284111,104.280472 75.757919,105.835274 73.793724,113.278847 
	C71.906029,120.432510 69.837532,121.995514 62.223438,121.999008 
	C53.065445,122.003220 43.907413,122.016579 34.749477,121.994438 
	C28.158846,121.978500 25.040133,119.430580 25.000446,114.107391 
	C24.954065,107.885979 27.858950,105.115196 34.773914,105.019157 
	C41.100037,104.931297 47.445518,105.262047 53.745762,104.848755 
	C55.776958,104.715508 58.491718,103.302460 59.529942,101.628822 
	C66.338844,90.652802 77.065636,86.495224 89.395584,90.725662 
	C92.689560,91.855835 94.672142,91.856102 97.229256,88.563988 
	C105.965332,77.316879 117.814461,71.709717 132.093109,73.299194 
	C149.153275,75.198318 161.557983,83.978188 167.202469,100.664314 
	C168.598877,104.792343 168.693161,109.432266 168.929749,113.861244 
	C169.168976,118.340019 166.210281,121.496452 161.998871,121.975296 
	C157.829468,122.449371 154.159958,119.927765 152.967133,115.870850 
	C151.495300,110.864868 150.569504,105.576576 148.300354,100.953857 
	C144.394638,92.997116 133.193329,88.592804 124.027977,90.832939 
z"/>
<path fill="#BEE86E" opacity="1.000000" stroke="none" 
	d="
M408.544586,170.019653 
	C404.264984,165.067108 400.560699,160.009918 396.610229,155.153000 
	C378.974121,133.470428 357.606476,117.314049 328.585297,110.329605 
	C331.764984,109.720146 333.625641,109.147163 335.513641,109.035057 
	C354.545441,107.905060 372.976929,110.287987 390.369751,118.609886 
	C390.944763,118.885017 391.660645,118.865768 392.701538,118.983719 
	C409.315277,127.273727 423.377106,138.133255 433.796204,153.300369 
	C434.721893,154.647858 435.408722,156.156921 436.259216,157.558960 
	C440.931732,165.261703 439.583588,168.244415 430.749298,168.940674 
	C423.518616,169.510529 416.255341,169.667282 408.544586,170.019653 
z"/>
<path fill="#BEE86E" opacity="1.000000" stroke="none" 
	d="
M257.537811,77.804932 
	C271.373749,80.344505 284.375763,84.148636 296.194000,91.158257 
	C301.765625,94.462883 306.949127,98.421906 312.308472,102.084412 
	C311.989716,102.699852 311.670929,103.315300 311.352173,103.930748 
	C309.506226,103.325249 307.685577,102.624214 305.810608,102.128532 
	C276.367798,94.344650 247.817398,97.057793 220.077347,109.420296 
	C218.448044,110.146416 216.647385,110.488052 214.544373,111.018089 
	C207.753967,106.161201 201.223770,101.445061 194.978821,96.377388 
	C190.574829,92.803612 191.562515,88.962334 196.597336,86.585945 
	C209.170685,80.651443 222.120636,76.779259 236.113525,77.016838 
	C243.129959,77.135963 250.143463,77.427559 257.537811,77.804932 
z"/>
<path fill="#9B7469" opacity="1.000000" stroke="none" 
	d="
M202.950867,356.829773 
	C199.259415,357.225403 195.567978,357.621033 191.443024,357.999542 
	C189.260605,343.819214 188.286896,329.506165 185.584290,315.527344 
	C181.340393,293.576385 176.152466,271.797577 170.928635,250.050491 
	C167.957703,237.682281 164.120880,225.522034 160.351410,213.044983 
	C160.842941,207.090668 161.657028,201.359512 162.471100,195.628357 
	C163.018036,195.256668 163.564972,194.884979 164.111893,194.513290 
	C165.633377,196.501297 167.154846,198.489288 168.856079,201.067932 
	C169.383728,202.090805 169.731628,202.523056 170.079514,202.955292 
	C170.079514,202.955292 170.001724,202.943878 170.017334,203.332321 
	C172.340988,211.679092 174.965485,219.561356 176.900269,227.609421 
	C183.901001,256.730164 191.098923,285.815216 197.337128,315.102356 
	C200.252426,328.789093 201.142746,342.907196 202.950867,356.829773 
z"/>
<path fill="#DCF5FF" opacity="1.000000" stroke="none" 
	d="
M402.000000,266.000000 
	C393.670776,265.999969 385.841248,266.041382 378.012421,265.986115 
	C372.255646,265.945465 369.101074,263.215759 369.000366,258.363647 
	C368.875488,252.349747 371.449585,249.125900 377.525024,249.081741 
	C401.177948,248.909836 424.833618,248.909058 448.486511,249.082596 
	C454.558228,249.127151 457.128784,252.358017 456.999634,258.375153 
	C456.895569,263.224243 453.740295,265.967926 447.976105,265.984833 
	C432.817505,266.029297 417.658722,265.999939 402.000000,266.000000 
z"/>
<path fill="#BEE86E" opacity="1.000000" stroke="none" 
	d="
M350.021240,93.482269 
	C347.571014,95.178825 345.116119,96.455551 342.642639,97.695190 
	C335.890808,101.079094 329.131073,104.447342 322.266083,107.875931 
	C317.208099,99.146584 312.131683,90.385422 307.018890,81.265694 
	C313.736786,70.244019 323.658203,63.868423 335.514832,60.424362 
	C336.964813,60.003193 339.933014,61.436302 340.779114,62.855682 
	C346.301453,72.119629 350.055420,82.030518 350.021240,93.482269 
z"/>
<path fill="#BEE86E" opacity="1.000000" stroke="none" 
	d="
M210.118561,185.934540 
	C197.379913,186.245438 184.449524,184.660645 172.201477,189.806808 
	C169.775726,190.825989 167.318848,191.771057 163.839706,192.084824 
	C166.881973,186.590424 169.924240,181.096008 173.014160,175.237549 
	C180.702530,166.026276 189.432541,158.481873 199.742126,152.366638 
	C205.372681,152.951508 210.875488,153.843750 216.671280,155.299164 
	C214.682358,165.886398 212.400452,175.910477 210.118561,185.934540 
z"/>
<path fill="#BEE86E" opacity="1.000000" stroke="none" 
	d="
M143.515106,183.932571 
	C149.746521,186.870499 155.568848,189.848038 161.391190,192.825592 
	C145.930969,196.095108 132.784531,203.288849 120.496475,212.975677 
	C111.271919,206.731018 103.571030,199.239685 96.804382,190.682343 
	C93.785614,186.864685 95.365601,184.834305 98.876076,183.714355 
	C102.891602,182.433273 107.111137,181.310135 111.288757,181.114044 
	C121.492462,180.635101 131.719574,180.753372 141.619217,183.948380 
	C142.070389,184.094009 142.608429,183.970398 143.515106,183.932571 
z"/>
<path fill="#DCF5FF" opacity="1.000000" stroke="none" 
	d="
M408.548767,297.998840 
	C392.982941,297.999847 377.867126,298.012939 362.751343,297.993988 
	C356.174286,297.985718 353.048462,295.437927 353.000366,290.145477 
	C352.943787,283.918640 355.835419,281.064972 362.697113,281.026703 
	C377.646332,280.943298 392.596741,280.937256 407.545868,281.032379 
	C413.738800,281.071777 416.685730,283.688202 416.996735,288.893494 
	C417.336731,294.585297 415.341919,296.856140 408.548767,297.998840 
z"/>
<path fill="#DCF5FF" opacity="1.000000" stroke="none" 
	d="
M343.593201,249.001602 
	C348.540253,249.361252 352.232330,250.794495 352.963928,255.942123 
	C353.556091,260.108734 352.678497,264.593475 348.260284,265.080383 
	C340.773163,265.905457 333.069672,265.790710 325.565918,265.016541 
	C321.717499,264.619476 320.566650,260.690033 320.973724,256.749176 
	C321.356384,253.044357 322.846100,250.097153 326.749115,249.713364 
	C332.183899,249.179001 337.674347,249.210815 343.593201,249.001602 
z"/>
<path fill="#C1E9FF" opacity="1.000000" stroke="none" 
	d="
M16.991268,419.497131 
	C22.114378,420.257324 27.377256,421.084534 32.339531,422.787598 
	C40.465336,425.576416 48.158382,430.065186 56.459911,431.807709 
	C71.758163,435.018951 87.183586,434.275696 101.366783,426.727478 
	C112.303284,420.907074 123.523483,416.456299 136.051758,418.140656 
	C143.328796,419.119019 151.013367,420.323975 157.455734,423.544830 
	C169.265228,429.448975 181.285431,433.673370 194.477356,433.536163 
	C205.292511,433.423676 216.047913,432.018890 225.696716,426.599457 
	C236.529053,420.515228 247.897629,416.469147 260.404297,418.141052 
	C267.520447,419.092377 275.027435,420.312805 281.330200,423.466766 
	C293.127777,429.370483 305.111298,433.665985 318.337708,433.516510 
	C329.337524,433.392212 340.215210,431.953186 350.012390,426.441345 
	C360.693604,420.432190 371.928070,416.564209 384.260529,418.126373 
	C391.065552,418.988342 398.277039,419.994598 404.300140,422.970276 
	C416.385712,428.941101 428.562500,433.756592 442.197205,433.484436 
	C452.816376,433.272491 463.146881,431.771118 473.026031,427.154877 
	C480.571655,423.629059 488.695648,421.340973 496.788086,418.769470 
	C497.745728,429.467743 495.892365,439.095306 488.079803,446.735626 
	C486.125946,448.646332 483.837799,450.215179 481.315704,451.615570 
	C478.183197,445.296997 475.864441,444.410950 469.567169,445.592865 
	C460.490417,447.296539 451.323914,449.703339 442.197357,449.696320 
	C426.779205,449.684479 412.221161,445.234833 398.429901,437.968689 
	C393.791870,435.525055 388.061493,434.916046 382.734833,434.070465 
	C373.324036,432.576599 365.365814,436.828949 357.198944,440.796936 
	C338.720215,449.775116 319.220215,452.197723 299.272827,447.050018 
	C290.836243,444.872833 282.915405,440.763641 274.627136,437.920532 
	C269.680267,436.223602 264.535828,434.896332 259.373169,434.079803 
	C250.021881,432.600891 241.942841,436.424530 233.763031,440.497498 
	C215.030746,449.824951 195.209366,452.250275 174.920639,446.977081 
	C166.488907,444.785583 158.586349,440.626343 150.306473,437.756195 
	C145.520309,436.097076 140.519730,434.846497 135.513412,434.077911 
	C126.161934,432.642151 117.933060,436.184998 109.878471,440.508148 
	C97.480927,447.162354 83.879562,449.783356 70.079086,449.687958 
	C61.446465,449.628296 52.797184,447.210052 44.219715,445.522980 
	C37.915836,444.283112 35.131916,445.670929 32.999077,452.012756 
	C23.272144,447.100128 18.442516,438.831238 17.055593,428.351654 
	C16.691317,425.599182 16.997656,422.757935 16.991268,419.497131 
z"/>
<path fill="#DCF5FF" opacity="1.000000" stroke="none" 
	d="
M32.999428,452.414642 
	C35.131916,445.670929 37.915836,444.283112 44.219715,445.522980 
	C52.797184,447.210052 61.446465,449.628296 70.079086,449.687958 
	C83.879562,449.783356 97.480927,447.162354 109.878471,440.508148 
	C117.933060,436.184998 126.161934,432.642151 135.513412,434.077911 
	C140.519730,434.846497 145.520309,436.097076 150.306473,437.756195 
	C158.586349,440.626343 166.488907,444.785583 174.920639,446.977081 
	C195.209366,452.250275 215.030746,449.824951 233.763031,440.497498 
	C241.942841,436.424530 250.021881,432.600891 259.373169,434.079803 
	C264.535828,434.896332 269.680267,436.223602 274.627136,437.920532 
	C282.915405,440.763641 290.836243,444.872833 299.272827,447.050018 
	C319.220215,452.197723 338.720215,449.775116 357.198944,440.796936 
	C365.365814,436.828949 373.324036,432.576599 382.734833,434.070465 
	C388.061493,434.916046 393.791870,435.525055 398.429901,437.968689 
	C412.221161,445.234833 426.779205,449.684479 442.197357,449.696320 
	C451.323914,449.703339 460.490417,447.296539 469.567169,445.592865 
	C475.864441,444.410950 478.183197,445.296997 480.964661,451.650574 
	C481.572998,456.718048 479.297699,459.671204 475.038086,461.089417 
	C460.660309,465.876312 445.996246,466.755585 430.905334,465.307220 
	C416.340118,463.909302 403.245667,458.795105 390.471558,452.244324 
	C383.931610,448.890472 377.589020,449.658997 370.838318,452.434814 
	C359.841461,456.956543 348.806549,462.177490 337.266449,464.415070 
	C315.828796,468.571808 294.671112,465.894348 274.704865,456.335571 
	C272.602875,455.329285 270.479950,454.348175 268.459930,453.192535 
	C260.876923,448.854370 253.370026,448.883698 245.711044,453.099487 
	C228.749054,462.435944 210.585510,466.708130 191.199524,466.036102 
	C177.082382,465.546753 163.662155,462.394775 150.885849,456.428009 
	C148.473099,455.301208 146.066666,454.146118 143.735489,452.862183 
	C136.599442,448.931885 129.764435,449.488464 122.300339,452.683472 
	C111.988617,457.097473 101.461647,461.486847 90.591080,464.007324 
	C73.384392,467.997009 56.055992,466.706024 39.126621,461.208344 
	C34.871086,459.826355 32.783501,457.264160 32.999428,452.414642 
z"/>
<path fill="#FFFFFF" opacity="1.000000" stroke="none" 
	d="
M210.519470,185.963867 
	C212.400452,175.910477 214.682358,165.886398 217.037170,155.461243 
	C235.859329,155.587936 254.367294,154.083176 271.929993,146.989166 
	C280.571564,143.498627 288.831055,139.062225 297.624176,135.440979 
	C294.648346,143.280838 291.209351,150.689667 287.994202,158.194397 
	C277.628876,182.388718 269.343689,207.309891 263.035126,232.840042 
	C258.028748,253.100555 253.299072,273.450562 249.251434,293.920013 
	C246.176315,309.471344 244.384750,325.275696 241.981232,340.961212 
	C241.366806,344.970886 240.597641,348.956879 239.899582,352.953735 
	C236.648819,353.307281 233.401062,353.692139 230.146484,354.006165 
	C226.394531,354.368164 222.636520,354.667542 218.442993,354.553284 
	C216.352585,344.613129 214.810883,335.092987 213.027603,325.618286 
	C207.368820,295.552277 199.734558,265.988098 190.032471,236.972748 
	C187.238342,228.616486 184.051682,220.391495 181.044983,212.106323 
	C190.929779,215.852386 200.576904,220.530457 210.755081,223.126114 
	C226.026398,227.020660 241.500336,226.101562 256.470520,220.699356 
	C258.854401,219.839096 260.931396,218.128357 263.561859,216.566406 
	C257.946991,208.011093 250.806274,202.083893 242.643005,197.299316 
	C232.796509,191.528152 222.122757,187.999847 210.519470,185.963867 
z"/>
<path fill="#9B7369" opacity="1.000000" stroke="none" 
	d="
M240.180725,353.279541 
	C240.597641,348.956879 241.366806,344.970886 241.981232,340.961212 
	C244.384750,325.275696 246.176315,309.471344 249.251434,293.920013 
	C253.299072,273.450562 258.028748,253.100555 263.035126,232.840042 
	C269.343689,207.309891 277.628876,182.388718 287.994202,158.194397 
	C291.209351,150.689667 294.648346,143.280838 297.986084,135.467911 
	C304.037598,129.538818 310.087891,123.969940 316.754425,117.833824 
	C317.261475,120.770569 317.638550,122.954712 318.037048,125.535385 
	C303.440369,154.063263 292.572601,183.664352 285.113495,214.389420 
	C278.485565,241.690765 272.456421,269.179901 267.464844,296.821228 
	C264.124908,315.316406 263.062103,334.222839 260.967468,353.392761 
	C254.123703,353.761963 247.292786,353.683655 240.180725,353.279541 
z"/>
<path fill="#BEE86E" opacity="1.000000" stroke="none" 
	d="
M313.440735,104.534752 
	C313.403870,104.476105 313.477600,104.593399 313.440735,104.534752 
z"/>
<path fill="#AA8778" opacity="1.000000" stroke="none" 
	d="
M180.764282,211.911270 
	C184.051682,220.391495 187.238342,228.616486 190.032471,236.972748 
	C199.734558,265.988098 207.368820,295.552277 213.027603,325.618286 
	C214.810883,335.092987 216.352585,344.613129 218.014984,354.547546 
	C213.281219,355.630005 208.537308,356.277405 203.372131,356.877289 
	C201.142746,342.907196 200.252426,328.789093 197.337128,315.102356 
	C191.098923,285.815216 183.901001,256.730164 176.900269,227.609421 
	C174.965485,219.561356 172.340988,211.679092 170.054443,203.319260 
	C173.545151,205.850586 177.014359,208.783401 180.764282,211.911270 
z"/>
<path fill="#AA8778" opacity="1.000000" stroke="none" 
	d="
M170.054169,202.663147 
	C169.731628,202.523056 169.383728,202.090805 169.004333,201.366501 
	C169.324814,201.506622 169.676804,201.938797 170.054169,202.663147 
z"/>
</svg>